<?xml version="1.0" standalone="no"?>
<!DOCTYPE svg PUBLIC "-//W3C//DTD SVG 1.1//EN" "http://www.w3.org/Graphics/SVG/1.1/DTD/svg11.dtd" >
<svg xmlns="http://www.w3.org/2000/svg">
<metadata>
Created by FontForge 20120731 at Tue Dec 13 17:11:11 2016
 By admin
</metadata>
<defs>
<font id="iconfont" horiz-adv-x="1024" >
  <font-face 
    font-family="iconfont"
    font-weight="500"
    font-stretch="normal"
    units-per-em="1024"
    panose-1="2 0 6 3 0 0 0 0 0 0"
    ascent="896"
    descent="-128"
    x-height="792"
    bbox="0 -128 1022 883"
    underline-thickness="0"
    underline-position="0"
    unicode-range="U+0078-E673"
  />
<missing-glyph 
 />
    <glyph glyph-name=".notdef" 
 />
    <glyph glyph-name=".notdef" 
 />
    <glyph glyph-name=".null" horiz-adv-x="0" 
 />
    <glyph glyph-name="nonmarkingreturn" horiz-adv-x="341" 
 />
    <glyph glyph-name="x" unicode="x" horiz-adv-x="1001" 
d="M281 543q-27 -1 -53 -1h-83q-18 0 -36.5 -6t-32.5 -18.5t-23 -32t-9 -45.5v-76h912v41q0 16 -0.5 30t-0.5 18q0 13 -5 29t-17 29.5t-31.5 22.5t-49.5 9h-133v-97h-438v97zM955 310v-52q0 -23 0.5 -52t0.5 -58t-10.5 -47.5t-26 -30t-33 -16t-31.5 -4.5q-14 -1 -29.5 -0.5
t-29.5 0.5h-32l-45 128h-439l-44 -128h-29h-34q-20 0 -45 1q-25 0 -41 9.5t-25.5 23t-13.5 29.5t-4 30v167h911zM163 247q-12 0 -21 -8.5t-9 -21.5t9 -21.5t21 -8.5q13 0 22 8.5t9 21.5t-9 21.5t-22 8.5zM316 123q-8 -26 -14 -48q-5 -19 -10.5 -37t-7.5 -25t-3 -15t1 -14.5
t9.5 -10.5t21.5 -4h37h67h81h80h64h36q23 0 34 12t2 38q-5 13 -9.5 30.5t-9.5 34.5q-5 19 -11 39h-368zM336 498v228q0 11 2.5 23t10 21.5t20.5 15.5t34 6h188q31 0 51.5 -14.5t20.5 -52.5v-227h-327z" />
    <glyph glyph-name="home-with-door" unicode="&#xe609;" 
d="M931 445l-339 353q-33 34 -80 34t-80 -34l-339 -353q-16 -17 -23 -34.5t-6.5 -28t4.5 -18.5q15 -36 58 -36h50v-272q0 -47 30.5 -83t76.5 -36h145v63v224v12.5v11t0.5 8.5t2.5 7.5t5 4.5t7.5 3.5t11.5 0.5h114q7 0 11.5 -0.5t7.5 -3.5t5 -4.5t2.5 -7.5t0.5 -8.5v-11
v-12.5v-287h145q45 0 76 36t31 83v272h50q42 0 58 36q4 8 4.5 18.5t-6.5 28t-23 34.5zM898 384h-106v-328q0 -24 -14.5 -43.5t-36.5 -19.5h-89v231q0 50 -19 77t-64 27h-114q-83 0 -83 -104v-231h-89q-22 0 -36.5 19.5t-14.5 43.5v328h-106l-1 2l-1 2q9 16 10 18l340 353
q16 18 38 17q21 1 38 -17l340 -353q1 -2 10 -18l-1 -2z" />
    <glyph glyph-name="down" unicode="&#xe672;" 
d="M112 481l-48 -49l448 -447l447 447l-48 49l-400 -399zM112 481z" />
    <glyph glyph-name="close" unicode="&#xe601;" 
d="M837 609l-34 33l-291 -291l-291 291l-34 -33l291 -293l-291 -291l34 -34l291 291l291 -291l34 34l-291 291z" />
    <glyph glyph-name="up" unicode="&#xe614;" 
d="M465 513l47 47l441 -441l-47 -47zM512 560l47 -47l-441 -441l-47 47z" />
    <glyph glyph-name="voice-copy" unicode="&#xe608;" 
d="M661 864l-90 -84q41 -39 72 -83q33 -45 55 -95q46 -104 46 -218t-46 -218q-22 -49 -55 -95q-32 -45 -72 -83l90 -85q99 95 154.5 219t55.5 262t-55.5 262t-154.5 218zM470 684l-89 -84q44 -43 69 -97q25 -57 25 -119t-25 -119q-24 -54 -69 -97l89 -84q62 58 97 136
t35 164t-35 164t-97 136zM280 504l-127 -120l127 -120q53 50 53 120t-53 120z" />
    <glyph glyph-name="icon_addpatient_norx-" unicode="&#xe628;" 
d="M384 576v-64q0 -53 37.5 -90.5t90.5 -37.5t90.5 37.5t37.5 90.5v64q0 53 -37.5 90.5t-90.5 37.5t-90.5 -37.5t-37.5 -90.5zM320 576q0 79 56.5 135.5t136 56.5t135.5 -56t56 -136v-64q0 -79 -56.5 -135.5t-136 -56.5t-135.5 56t-56 136v64zM617 239q-62 14 -137 14
q-163 0 -257.5 -65.5t-94.5 -190.5h64q0 94 75 143t213 49q68 0 122 -12zM736 160h-96v-64h96v-96h64v96h96v64h-96v96h-64v-96z" />
    <glyph glyph-name="add" unicode="&#xe629;" 
d="M791 384h-256v256q0 9 -7 15.5t-16 6.5t-16 -6.5t-7 -15.5v-256h-256q-9 0 -15.5 -7t-6.5 -16t6.5 -16t15.5 -8h256v-256q0 -9 7 -15.5t16 -6.5t16 6.5t7 15.5v256h256q9 1 15.5 8t6.5 16t-6.5 16t-15.5 7zM512 826q-95 0 -181 -37t-148.5 -99t-99 -148.5t-36.5 -181
t36.5 -180.5t99 -148.5t148.5 -99.5t181 -37t181 37t148.5 99.5t99 148.5t36.5 180.5t-36.5 181t-99 148.5t-148.5 99t-181 37zM512 -58q-114 0 -210.5 56t-152.5 152.5t-56 210.5t56 210.5t152.5 152.5t210.5 56t210.5 -56t152.5 -152.5t56 -210.5t-56 -210.5
t-152.5 -152.5t-210.5 -56z" />
    <glyph glyph-name="arrow-right" unicode="&#xe62b;" 
d="M733 377l-437 438q-7 7 -17 7t-16.5 -7t-6.5 -16q0 -10 7 -17l421 -421l-421 -421q-7 -7 -7 -17t6.5 -16.5t16.5 -6.5t17 7l437 437q7 7 7 16.5t-7 16.5z" />
    <glyph glyph-name="arrow" unicode="&#xe62c;" 
d="M340 361l421 421q7 7 7 17q0 9 -6.5 16t-16.5 7t-17 -7l-437 -438q-7 -7 -7 -16.5t7 -16.5l437 -437q7 -7 17 -7t16.5 6.5t6.5 16.5t-7 17z" />
    <glyph glyph-name="ask" unicode="&#xe62d;" 
d="M512 733q-95 0 -175.5 -46.5t-127 -127t-46.5 -175.5t46.5 -175.5t127 -127t175.5 -46.5t175.5 46.5t127 127t46.5 175.5t-46.5 175.5t-127 127t-175.5 46.5zM349 169h-43v357h43v-357zM332 593l26 23q34 -33 66 -67l-30 -26q-39 46 -62 70zM450 291v-26h-41v189h197
v-163h-156v0zM711 235q0 -66 -59 -66q-38 0 -75 1q-2 19 -7 37q38 -3 73 -3q33 0 33 36v307h-224v24h260v-336h-1zM452 316h120v115h-120v-115z" />
    <glyph glyph-name="attention" unicode="&#xe62e;" 
d="M976 518q-2 8 -9.5 14t-15.5 7l-269 17l-143 251q-8 19 -27 19t-27 -19l-144 -251l-268 -16q-8 -1 -15.5 -7t-9.5 -14q-6 -20 9 -34l210 -224l-72 -304q-5 -20 11 -33q7 -6 17 -6q8 0 15 5l274 167l275 -167q7 -5 15 -5q9 0 17 6q15 13 11 33l-75 305l212 222q15 14 9 34
v0zM899 462l-204 -183l87 -258q1 -3 1 -7q0 -13 -10 -21q-7 -5 -15 -5q-7 0 -12 4l-234 164l-233 -164q-6 -4 -13 -4q-8 0 -14 5q-10 8 -10 21v7l85 257l-202 185q-9 8 -9 20q0 4 1 8q2 7 8.5 12t13.5 6l227 -5l123 237q7 16 23 16t23 -16l121 -237l229 4q7 0 13.5 -5.5
t7.5 -12.5q2 -4 2 -8q0 -12 -9 -20v0z" />
    <glyph glyph-name="check" unicode="&#xe62f;" 
d="M512 803q-114 0 -210.5 -56t-152.5 -152.5t-56 -210.5t56 -210.5t152.5 -152.5t210.5 -56t210.5 56t152.5 152.5t56 210.5t-56 210.5t-152.5 152.5t-210.5 56zM799 496l-330 -329q-6 -7 -16 -7t-16 7l-165 165q-7 7 -7 17q0 9 7 16t16 7q10 0 17 -7l148 -148l313 312
q6 7 16 7t16.5 -7t6.5 -16.5t-6 -16.5v0z" />
    <glyph glyph-name="checkedbox" unicode="&#xe630;" 
d="M675 640h-372v0q-39 0 -66.5 -27.5t-27.5 -65.5v0v-372v0q0 -39 27.5 -66.5t66.5 -27.5v0h372v0q38 0 65.5 27.5t27.5 66.5v0v372v0q0 38 -27.5 65.5t-65.5 27.5v0zM721 206v0q0 -33 -22.5 -55.5t-54.5 -22.5h-310q-33 0 -55.5 22.5t-22.5 55.5v310v0q0 32 22.5 54.5
t55.5 22.5v0h310v0q32 0 54.5 -22.5t22.5 -54.5v-310v0zM607 473l-168 -167l-68 68q-7 7 -17 7t-16.5 -6.5t-6.5 -16.5t7 -17l85 -85q7 -6 16.5 -6t16.5 6l184 184q7 7 7 17t-7 16.5t-16 6.5q-10 0 -17 -7v0z" />
    <glyph glyph-name="checkbox" unicode="&#xe631;" 
d="M675 640h-372v0q-39 0 -66.5 -27.5t-27.5 -65.5v0v-372v0q0 -39 27.5 -66.5t66.5 -27.5v0h372v0q38 0 65.5 27.5t27.5 66.5v0v372v0q0 38 -27.5 65.5t-65.5 27.5v0zM721 206v0q0 -33 -22.5 -55.5t-54.5 -22.5h-310q-33 0 -55.5 22.5t-22.5 55.5v310v0q0 32 22.5 54.5
t55.5 22.5v0h310v0q32 0 54.5 -22.5t22.5 -54.5v-310v0z" />
    <glyph glyph-name="cardid" unicode="&#xe632;" 
d="M861 780h-698v0q-48 0 -82 -34.5t-34 -82.5v0v-558v0q0 -48 34 -82.5t82 -34.5v0h698v0q48 0 82 34.5t34 82.5v0v558v0q0 48 -34 82.5t-82 34.5v0zM931 105q0 -29 -20.5 -49.5t-49.5 -20.5h-698q-29 0 -49.5 20.5t-20.5 49.5v558q0 29 20.5 49.5t49.5 20.5h698
q29 0 49.5 -20.5t20.5 -49.5v-558zM186 198h256v46h-256v-46zM186 361h256v46h-256v-46zM186 524h256v46h-256v-46zM749 365q18 14 30 40t12 49q0 48 -34 82t-82 34t-82 -34t-34 -82q0 -54 41 -89q-40 -21 -64 -59.5t-24 -84.5q0 -9 7 -15.5t16 -6.5t16 6.5t8 15.5
q0 48 34 82t82 34t82 -34t34 -82q1 -9 7.5 -15.5t16 -6.5t16 6.5t7.5 15.5q0 46 -24.5 84.5t-64.5 59.5v0zM675 384h-2q-28 0 -48.5 20.5t-20.5 49.5t20.5 49.5t48.5 20.5h2q28 -1 48 -21.5t20 -48.5t-20 -48.5t-48 -21.5z" />
    <glyph glyph-name="close-o" unicode="&#xe633;" 
d="M512 826q-95 0 -181 -37t-148.5 -99t-99 -148.5t-36.5 -181t36.5 -180.5t99 -148.5t148.5 -99.5t181 -37t181 37t148.5 99.5t99 148.5t36.5 180.5t-36.5 181t-99 148.5t-148.5 99t-181 37zM512 -58q-114 0 -210.5 56t-152.5 152.5t-56 210.5t56 210.5t152.5 152.5
t210.5 56t210.5 -56t152.5 -152.5t56 -210.5t-56 -210.5t-152.5 -152.5t-210.5 -56zM726 574.5q-7 6.5 -16.5 6.5t-16.5 -6l-181 -181l-181 181q-7 7 -17 7q-9 0 -16 -7t-7 -17q0 -9 7 -16l181 -181l-181 -181q-7 -7 -7 -17t7 -16.5t16 -6.5q10 0 17 7l181 181l181 -181
q7 -7 17 -7q9 0 16 6.5t7 16.5t-7 17l-181 181l181 181q7 7 7 16.5t-7 16z" />
    <glyph glyph-name="clock" unicode="&#xe634;" 
d="M908 362q0 107 -53 198t-144.5 143.5t-198.5 52.5t-198.5 -52.5t-144.5 -143.5t-53 -198q0 -88 37 -165.5t102 -133.5q-4 -3 -7 -7l-47 -72q-8 -12 -6 -23.5t12 -16.5t22 -0.5t19 15.5l47 72q0 1 0.5 1h0.5q98 -64 216 -64t216 64h0.5t0.5 -1l47 -72q7 -11 19 -15.5
t22 0.5t12 16.5t-6 23.5l-47 72q-3 4 -7 7q65 56 102 133.5t37 165.5v0zM512 21q-93 0 -172 45.5t-125 124t-46 171.5t46 171.5t125 124.5t172 46t172 -46t125 -124.5t46 -171.5t-46 -171.5t-125 -124t-172 -45.5zM627 486l-115 -116l-82 83q-7 7 -17 7t-16.5 -7t-6.5 -17
q0 -9 7 -16l82 -83l-16 -16q-7 -7 -7 -17q0 -9 6.5 -16t16.5 -7t17 7l16 17l16 -17q7 -7 17 -7t16.5 7t6.5 16q0 10 -7 17l-16 16l115 116q7 7 7 16q0 10 -6.5 17t-16.5 7t-17 -7zM140 687v0q0 48 34 82t82 34v0q34 0 63 -19q25 11 50 20q-20 19 -53 32t-60 13v0
q-67 0 -115 -47.5t-48 -114.5v0q0 -44 23 -83q15 24 31 44q-7 19 -7 39v0zM768 849q-65 0 -113 -45q24 -8 50 -20q29 19 63 19v0q48 0 82 -34t34 -82v0q0 -19 -7 -39q16 -19 31 -43q9 15 16 39t7 43v0q0 67 -48 114.5t-115 47.5v0v0z" />
    <glyph glyph-name="completed" unicode="&#xe636;" 
d="M512 826q-95 0 -181 -37t-148.5 -99t-99 -148.5t-36.5 -181t36.5 -180.5t99 -148.5t148.5 -99.5t181 -37t181 37t148.5 99.5t99 148.5t36.5 180.5t-36.5 181t-99 148.5t-148.5 99t-181 37zM512 -58q-114 0 -210.5 56t-152.5 152.5t-56 210.5t56 210.5t152.5 152.5
t210.5 56t210.5 -56t152.5 -152.5t56 -210.5t-56 -210.5t-152.5 -152.5t-210.5 -56zM734 503l-313 -313l-131 132q-7 7 -17 7q-9 0 -16 -7t-7 -17t7 -16l148 -148q7 -7 16.5 -7t16.5 7l329 329q7 6 7 16t-7 16.5t-16.5 6.5t-16.5 -6v0z" />
    <glyph glyph-name="decide" unicode="&#xe637;" 
d="M706 86q-22 -18 -53.5 -44t-43.5 -36t-30.5 -25.5t-27 -23.5t-19 -18t-20.5 -20q-18 19 -36.5 35.5t-66 55.5t-91.5 76q-34 30 -52.5 46t-51.5 48t-52.5 55t-44 57.5t-38 65t-23 69t-9.5 77.5q0 64 22 120.5t58 95t83 61t96 22.5q59 0 112.5 -32t93.5 -98q40 66 94 98
t112 32q49 0 96 -22.5t83.5 -61t58 -94.5t21.5 -119q0 -54 -17.5 -106.5t-42.5 -92.5t-65.5 -84.5t-71 -72t-74.5 -64.5v0z" />
    <glyph glyph-name="commpany" unicode="&#xe638;" 
d="M954 -12h-46v443q0 19 -14 32.5t-33 13.5h-233v-46h210q9 0 16 -7t7 -17v-395q0 -10 -7 -17t-16 -7h-280v792q0 19 -13.5 32.5t-32.5 13.5h-349q-19 0 -33 -13.5t-14 -32.5v-792h-46q-9 0 -15.5 -7t-6.5 -16t6.5 -16t15.5 -7h884q9 0 15.5 7t6.5 16t-6.5 16t-15.5 7v0z
M512 -12h-349v768q0 10 7 17t16 7h303q9 0 16 -7t7 -17v-768zM233 477h70v70h-70v-70zM233 617h70v70h-70v-70zM372 477h70v70h-70v-70zM372 617h70v70h-70v-70z" />
    <glyph glyph-name="declare" unicode="&#xe639;" 
d="M791 -58h-582q-38 0 -65.5 27t-27.5 66v535v0l280 280l1 -1h394q39 0 66 -27t27 -66v-721v0q0 -39 -27 -66t-66 -27v0zM396 784l-214 -214h167q19 0 33 13.5t14 33.5v167v0zM838 756q0 20 -13.5 33.5t-33.5 13.5h-349v-186q0 -39 -27 -66t-66 -27h-186v-489
q0 -19 13.5 -33t32.5 -14h582q20 0 33.5 14t13.5 33v721v0zM721 128h-442q-9 0 -15.5 7t-6.5 16t6.5 16t15.5 8h442q10 -1 16.5 -8t6.5 -16t-6.5 -16t-16.5 -7zM721 291h-442q-9 0 -15.5 7t-6.5 16t6.5 16t15.5 7h442q10 0 16.5 -7t6.5 -16t-6.5 -16t-16.5 -7zM721 454h-442
q-9 0 -15.5 7t-6.5 16t6.5 16t15.5 7h442q10 0 16.5 -7t6.5 -16t-6.5 -16t-16.5 -7zM721 617h-209q-9 0 -15.5 7t-6.5 16t6.5 16t15.5 7h209q10 0 16.5 -7t6.5 -16t-6.5 -16t-16.5 -7z" />
    <glyph glyph-name="doctor-plus" unicode="&#xe63a;" 
d="M418 189q0 -6 4 -10t10 -4h88q6 0 10 4t4 10v107h107v0q6 0 10 4t4 10v88q0 6 -4 10t-10 4h-107v108q0 5 -4 9t-10 4h-88q-6 0 -10 -4t-4 -9v-108h-107q-6 0 -10 -4t-4 -10v-88q0 -6 4 -10t10 -4h107v-107zM445 837h-374q-55 0 -55 -56v-739q0 -50 30 -74q8 -8 20 -16
t19.5 -12.5l7.5 -4.5q49 -30 110 -46v760h250q137 0 226 -89q84 -87 84 -206q0 -117 -84 -205q-89 -90 -226 -90h-76v-187h69q99 0 189.5 30t172.5 111q45 44 75.5 95t44 98t18 81t4.5 66q0 29 -4 61t-17 81t-43.5 101.5t-75.5 97.5q-140 143 -365 143v0z" />
    <glyph glyph-name="delete" unicode="&#xe63b;" 
d="M838 593v-581q0 -39 -27.5 -66t-65.5 -27h-466q-38 0 -65.5 27t-27.5 66v581q-19 0 -32.5 14t-13.5 33v47q0 19 13.5 32.5t32.5 13.5h140v47q0 19 13.5 32.5t32.5 13.5h280q19 0 32.5 -13.5t13.5 -32.5v-47h140q19 0 32.5 -13.5t13.5 -32.5v-47q0 -19 -13.5 -33
t-32.5 -14v0zM233 593v-581q0 -20 13.5 -33.5t32.5 -13.5h466q19 0 32.5 13.5t13.5 33.5v581h-558zM372 733v23q0 10 7 17t17 7h232q10 0 17 -7t7 -17v-23h-280zM815 687h-606q-9 -1 -15.5 -8t-6.5 -16t6.5 -15.5t15.5 -7.5h606q9 1 15.5 7.5t6.5 15.5t-6.5 16t-15.5 8z
M372.5 477q9.5 0 16.5 -7t7 -16v-326q-1 -9 -7.5 -15.5t-16 -6.5t-16 6.5t-7.5 15.5v326q0 9 7 16t16.5 7zM512 477q10 0 16.5 -7t6.5 -16v-326q0 -9 -7 -15.5t-16 -6.5t-16 6.5t-7 15.5v326q0 9 6.5 16t16.5 7zM651.5 477q9.5 0 16.5 -7t7 -16v-326q-1 -9 -7.5 -15.5
t-16 -6.5t-16 6.5t-7.5 15.5v326q0 9 7 16t16.5 7z" />
    <glyph glyph-name="doctor" unicode="&#xe63c;" 
d="M512 733q-95 0 -175.5 -46.5t-127 -127t-46.5 -175.5t46.5 -175.5t127 -127t175.5 -46.5t175.5 46.5t127 127t46.5 175.5t-46.5 175.5t-127 127t-175.5 46.5zM742 197h-409v374h404v-22h-365v-327h370v-25v0zM579 338q55 -35 141 -73l-23 -21q-18 9 -68 30.5t-82 39.5
l-108 -69l-49 14q5 3 13.5 7t30.5 16.5t39.5 24.5t34 27t20.5 27h-134v25h144q7 31 8 69h-75q-13 -21 -45 -60q-14 12 -29 24q48 53 76 125l34 -12q-2 -6 -8.5 -26.5t-10.5 -27.5h223v-23h-129q0 -35 -6 -69h156v-25h-171q-3 -9 18 -23v0z" />
    <glyph glyph-name="favorite" unicode="&#xe63d;" 
d="M775 482l-161 15l-86 155q-4 11 -16 11t-16 -11l-87 -155l-160 -15q-12 -2 -16 -13v-6q0 -9 6 -15l126 -133l-43 -187q-3 -12 6.5 -19.5t19.5 -1.5l164 103l165 -103q4 -2 9 -2q6 0 10 3q7 6 7 16v4l-45 188l127 132q6 6 6 15q0 3 -1 6q-3 11 -15 13v0zM717 429l-96 -104
l34 -133v-3q0 -7 -5 -12q-3 -3 -8 -3q-3 0 -6 2l-125 77l-122 -77q-3 -2 -7 -2t-8 3q-5 5 -5 12v3l33 133l-95 104q-7 6 -4 15t11 10l112 15l74 116q3 9 12 9t12 -9l73 -116l112 -15q10 -1 12 -10v-5q0 -6 -4 -10zM512 826q-95 0 -181 -37t-148.5 -99t-99 -148.5t-36.5 -181
t36.5 -180.5t99 -148.5t148.5 -99.5t181 -37t181 37t148.5 99.5t99 148.5t36.5 180.5t-36.5 181t-99 148.5t-148.5 99t-181 37zM512 -58q-114 0 -210.5 56t-152.5 152.5t-56 210.5t56 210.5t152.5 152.5t210.5 56t210.5 -56t152.5 -152.5t56 -210.5t-56 -210.5
t-152.5 -152.5t-210.5 -56z" />
    <glyph glyph-name="down-btn" unicode="&#xe63e;" 
d="M962 -128h-910q-21 0 -35.5 15t-14.5 36v379h75v-304q0 -21 15 -35.5t36 -14.5h758q21 0 35.5 14.5t14.5 35.5v304h76v-379q0 -21 -14.5 -36t-35.5 -15v0zM280 428h126v404h202v-404h126l-227 -278l-227 278v0z" />
    <glyph glyph-name="goodoctor" unicode="&#xe63f;" 
d="M697 733q-52 0 -100.5 -27t-84.5 -82v0q-36 55 -84.5 82t-100.5 27q-93 0 -163.5 -72t-70.5 -180q0 -84 56 -167h1q-9 -13 -16 -33.5t-7 -36.5q0 -48 34 -82t82 -34t82 34t34 82.5t-34 82.5t-82 34q-20 0 -41 -8q-39 60 -39 121q0 81 56 137q53 52 123 52q60 0 124 -82
q-20 -11 -33.5 -34.5t-13.5 -46.5q0 -38 27 -65.5t66 -27.5t66 27.5t27 65.5q0 23 -14 46.5t-33 34.5q64 83 124 83q70 0 123 -53q56 -56 56 -137q0 -35 -13.5 -70.5t-32 -62.5t-50 -58.5t-54.5 -50.5t-59 -47v0q-7 -6 -84 -63q-28 -21 -56 -40q-1 -1 -3 -2
q-10 -7 -14 -10.5t-8 -10.5t-3 -15q1 -17 8 -24t20 -8q20 -2 62 24t124 92q38 30 65 54t61.5 61t55.5 71t36 78t15 89q0 108 -70.5 180t-163.5 72v0zM243 291h1q19 0 33 -13.5t14 -33t-14 -33t-33 -13.5h-1q-19 0 -32 14t-13 32.5t13 32t32 14.5zM512 477h-1q-9 0 -16 7
t-7 16.5t7 16.5t16 7h1q9 -1 15.5 -7.5t6.5 -16t-6.5 -16t-15.5 -7.5v0z" />
    <glyph glyph-name="feedback" unicode="&#xe640;" 
d="M884 710h-46v-47h46q20 0 33.5 -13.5t13.5 -32.5v-629q0 -19 -13.5 -32.5t-33.5 -13.5h-744q-20 0 -33.5 13.5t-13.5 32.5v629q0 19 13.5 32.5t33.5 13.5h372v47h-372q-39 0 -66 -27.5t-27 -65.5v-629q0 -38 27 -65.5t66 -27.5h744v0q39 0 66 27.5t27 65.5v0v629
q0 38 -27 65.5t-66 27.5zM791 291v419q0 48 -34 82t-82 34t-82 -34t-34 -82v-419l116 -186zM605 710q1 28 21.5 48t48.5 20t48.5 -20t21.5 -48v-419h-140v419zM721 244l-46 -69l-47 69h93v0zM256 431h163q9 0 15.5 7t6.5 16t-6.5 16t-15.5 7h-163q-9 0 -15.5 -7t-6.5 -16
t6.5 -16t15.5 -7zM256 268h209q10 0 16.5 7t6.5 16t-6.5 16t-16.5 7h-209q-9 0 -15.5 -7t-6.5 -16t6.5 -16t15.5 -7zM233 128q0 -10 6.5 -16.5t16.5 -6.5h279q9 0 15.5 7t6.5 16t-6.5 16t-15.5 7h-279q-10 0 -16.5 -6.5t-6.5 -16.5z" />
    <glyph glyph-name="help" unicode="&#xe641;" 
d="M512 849q-95 0 -181 -36.5t-148.5 -99t-99 -148.5t-36.5 -181t36.5 -181t99 -148.5t148.5 -99t181 -36.5t181 36.5t148.5 99t99 148.5t36.5 181t-36.5 181t-99 148.5t-148.5 99t-181 36.5zM512 -35q-114 0 -210.5 56t-152.5 152.5t-56 210.5t56 210.5t152.5 152.5
t210.5 56t210.5 -56t152.5 -152.5t56 -210.5t-56 -210.5t-152.5 -152.5t-210.5 -56zM512 221h-1q-19 0 -33 -13.5t-14 -33t14 -33t33 -13.5h1q19 0 32 14t13 32.5t-13 32.5t-32 14zM512 640v0q-58 0 -99 -41t-41 -99h47v0q0 39 27 66.5t66 27.5t66 -27.5t27 -66t-27 -66
t-66 -27.5v0q-11 0 -23 4v-120q0 -9 7 -15.5t16 -6.5t16 6.5t7 15.5v72q48 8 82.5 48.5t34.5 88.5q0 58 -41 99t-99 41v0z" />
    <glyph glyph-name="home" unicode="&#xe642;" 
d="M803 -105h-582q-28 0 -48.5 20.5t-20.5 49.5v349h-131l-6 15q-3 10 -3 20q0 24 17 41l442 443q16 16 41 16t41 -16l442 -443q26 -26 14 -61l-6 -15h-130v-349q0 -29 -20.5 -49.5t-49.5 -20.5v0zM65 361h133v-396q0 -10 7 -16.5t16 -6.5h582q10 0 16.5 6.5t6.5 16.5v396
h133l-439 439q-3 3 -8 3t-8 -3l-439 -439v0z" />
    <glyph glyph-name="icon_intro" unicode="&#xe643;" 
d="M943 364l-414 416q-7 7 -17 7t-17 -7l-414 -416q-7 -7 -7 -17t7 -17t17 -7t17 7l397 400l397 -400q7 -7 17 -7t17 7t7 17t-7 17zM520 458q-10 0 -17 -6.5t-7 -16.5v-89h-87q-9 0 -15.5 -7t-6.5 -16t6.5 -16t15.5 -8h87v-87q1 -10 8 -16.5t16 -6.5t16 6.5t7 16.5v87h88
q10 0 17 7t7 17t-7 16.5t-17 6.5h-88v89v0q0 10 -6.5 16.5t-16.5 6.5v0v0zM781 75q0 -19 -13.5 -32.5t-32.5 -13.5h-445q-20 0 -33.5 13.5t-13.5 32.5v240h-47v-241q0 -39 27 -66t66 -27h446h1q38 0 65.5 27t27.5 66v0v241h-48v-240v0z" />
    <glyph glyph-name="instant-error" unicode="&#xe644;" 
d="M519.5 787q-107.5 0 -198.5 -53t-144 -144t-53 -198.5t53 -199t144 -144t198.5 -52.5t198.5 52.5t144 144t53 199t-53 198.5t-144 144t-198.5 53zM519 135h-1q-19 0 -32.5 13.5t-13.5 33t13.5 33t32.5 13.5h1q19 0 32.5 -14t13.5 -32.5t-13.5 -32t-32.5 -14.5zM566 321
q-1 -18 -14.5 -31.5t-32 -13.5t-32 13.5t-14.5 31.5v256q1 19 14.5 32t32 13t32 -13t14.5 -32v-256z" />
    <glyph glyph-name="icon_notice" unicode="&#xe645;" 
d="M512 826q-90 0 -172 -35t-141 -94t-94 -141t-35 -172t35 -172t94 -141t141 -94t172 -35t172 35t141 94t94 141t35 172t-35 172t-94 141t-141 94t-172 35zM512 -12q-107 0 -198.5 53t-144.5 144.5t-53 198.5t53 198.5t144.5 144.5t198.5 53t198.5 -53t144.5 -144.5
t53 -198.5t-53 -198.5t-144.5 -144.5t-198.5 -53zM678 556l-16 -17l16 17q-1 2 -4.5 4.5t-14 6t-21.5 -4.5l-189 -90q-3 -1 -7 -2.5t-13 -11t-14 -22.5l-76 -172q-14 -32 1 -48l12 12l-12 -12q6 -8 17.5 -9.5t20.5 1.5l9 3q152 69 172 80q13 6 22 14t12 14l2 6
q77 165 90 190q5 13 3.5 22t-5.5 14l-4 5h-1zM546 342l-38 41v0l-39 46l163 79l-86 -166v0z" />
    <glyph glyph-name="insurance" unicode="&#xe646;" 
d="M810 505h-139v-69h139v69zM914 644h-800q-36 0 -61.5 -25.5t-25.5 -61.5v-347q0 -36 25.5 -61.5t61.5 -25.5h800q36 0 61.5 25.5t25.5 61.5v347q0 36 -25.5 61.5t-61.5 25.5zM513 244h-307v279h303v-16h-273v-245h277v-18v0zM391 349q51 -30 105 -54l-17 -17
q-13 7 -51 23.5t-61 29.5q-40 -27 -81 -52l-37 11q11 5 26.5 13.5t44 28.5t33.5 34h-100v19h107q6 23 6 52h-56q-9 -16 -34 -45q-10 9 -22 17q36 40 58 94l25 -9q-2 -4 -6.5 -19.5t-7.5 -20.5h166v-17h-96q0 -27 -5 -53h117v-18h-128q-2 -7 14 -17v0zM594 227h-27v178
q-25 -45 -28 -50q-5 14 -11 28q46 68 71 165l25 -7q-13 -43 -30 -84v-230v0zM852 242q-26 16 -55 46.5t-43 57.5v-121h-28v123q-43 -78 -99 -113q-9 11 -20 21q26 14 54.5 41t44.5 52h-89v18h109v51h-55v-15h-23v120h189v-118h-27v13h-56v-51h112v-18h-92q31 -52 95 -82
q-10 -14 -17 -25v0z" />
    <glyph glyph-name="invite-disease" unicode="&#xe647;" 
d="M815 175q-39 0 -76.5 -25t-52.5 -60l-379 179q19 32 19 68q0 20 -7 43l384 223q18 -23 50.5 -39.5t61.5 -16.5q57 0 98 41t41 98.5t-41 98.5t-98.5 41t-98.5 -41t-41 -98q0 -20 7 -43l-385 -223q-17 23 -49.5 39.5t-61.5 16.5q-58 0 -99 -41t-41 -98.5t41 -98.5t99 -41
q22 0 48.5 10t42.5 24l399 -189q0 -1 -0.5 -3.5t-0.5 -4.5q0 -58 41 -99t98.5 -41t98.5 41t41 99t-41 99t-98 41v0zM815 780v0q38 0 65.5 -27.5t27.5 -66t-27.5 -65.5t-65.5 -27v0q-39 0 -66 27t-27 65.5t27 66t66 27.5zM93 337v0q0 39 27.5 66.5t66 27.5t65.5 -27.5
t27 -66.5v0q0 -38 -27 -65.5t-65.5 -27.5t-66 27.5t-27.5 65.5zM815 -58v0q-39 0 -66.5 27t-27.5 65.5t27.5 66t66.5 27.5v0q38 0 65.5 -27.5t27.5 -66t-27.5 -65.5t-65.5 -27z" />
    <glyph glyph-name="invite" unicode="&#xe648;" horiz-adv-x="1029" 
d="M982 -55q-4 111 -82 213.5t-183 136.5q67 34 108 98.5t41 141.5q-2 109 -80 186.5t-187.5 77.5t-187.5 -77.5t-80 -186.5q0 -77 41 -141.5t108 -98.5q-105 -34 -182.5 -136.5t-82.5 -213.5v-1v-2q0 -9 7 -15.5t16 -6.5t16 6.5t7 15.5h1q4 136 102 231t234.5 95t234.5 -95
t102 -231h1q1 -9 7.5 -15.5t15.5 -6.5t16 6.5t8 15.5q0 1 -0.5 2l-0.5 1v0zM378 535q1 90 66 154t155 64t154.5 -64t66.5 -154q-2 -90 -66.5 -153.5t-154.5 -63.5t-155 63.5t-66 153.5zM348 310q-12 13 -23 28q-55 2 -94.5 43t-39.5 96q0 40 21 73t56 51q5 27 16 56
q-19 12 -47.5 20t-50.5 8q-77 0 -131.5 -54.5t-54.5 -131.5t54.5 -131.5t131.5 -54.5q24 0 47 6q-81 -30 -131 -101t-50 -160q0 -9 7 -15.5t16 -6.5t16 6.5t7 15.5q0 95 67.5 163t162.5 70q9 9 20 19v0z" />
    <glyph glyph-name="link" unicode="&#xe649;" 
d="M637 -88h-5q-53 4 -110.5 31t-109.5 70t-96.5 91.5t-82.5 102.5q-79 113 -121.5 239.5t-14.5 221.5q7 22 30.5 50t38.5 41t26 22q37 31 80 31.5t61 -30.5l90 -147q15 -25 15.5 -55.5t-13.5 -51.5l-76 -112q15 -53 50 -102t80 -81l122 30q28 7 58 -1t46 -27l116 -142
q19 -23 13 -54q-8 -47 -63 -77q-83 -50 -134 -50v0zM273 768q-25 0 -51 -23q-25 -20 -50 -46.5t-30 -43.5q-22 -75 13 -190t116 -231q84 -120 183 -195t181 -80h2q39 0 111 43q36 20 41 46q1 9 -4 16l-116 142q-6 7 -23.5 11t-33.5 1l-142 -35l-8 5q-58 38 -101.5 99
t-59.5 128l-2 10l88 129q6 8 5 25.5t-9 31.5l-90 147q-5 10 -20 10v0zM548 647l-12 -45q88 -24 135.5 -99t25.5 -157l45 -12q26 101 -31 192.5t-163 120.5v0zM879 638q-42 71 -107.5 120t-146.5 70l-12 -45q72 -19 130.5 -62.5t96.5 -106.5q77 -129 39 -271l45 -12
q21 78 9.5 157.5t-53.5 149.5h-1z" />
    <glyph glyph-name="inurance-o" unicode="&#xe64a;" 
d="M729 263q-16 9 -34 23t-37 32q-34 33 -63 71h133q19 0 19 19t-19 19h-144v40h76q20 0 29.5 10t9.5 33v79q0 23 -9 32.5t-30 9.5h-190q-20 0 -30 -10t-10 -32v-79q0 -23 9.5 -33t30.5 -10h76v-40h-145q-9 0 -13.5 -4.5t-4.5 -16.5q0 -17 18 -17h129q-14 -19 -30 -36.5
t-33 -33.5q-19 -18 -37 -31q-15 -12 -33 -21q-15 -7 -22 -15v265q6 14 12 32q7 17 11 32q10 35 10 46q0 23 -19 23q-15 0 -21 -29q-11 -50 -30 -97q-21 -48 -50 -91q-5 -8 -8 -17q-1 -4 -1 -8v-4q2 -6 5.5 -9t7.5 -4v0h1q5 0 10 2t10 5q4 4 19 29l3 7v-1q0 1 2 2v-233
q0 -20 19 -20t19 20v26q3 -2 6 -3.5t7 -1.5q18 0 77 46q23 18 44 39q21 22 38 45v-153q0 -19 18 -19q19 0 19 19v146q19 -25 39.5 -46t41.5 -39q26 -21 44 -32q17 -11 26 -11v0q9 0 13.5 7t4.5 13q0 11 -24 25v0zM476 505q-8 0 -8 9v70q0 10 8 10h177q8 0 8 -10v-70
q0 -9 -8 -9h-177zM890 742l-349 112q-14 4 -29 4t-29 -4l-349 -112q-21 -6 -35.5 -26t-14.5 -41v-245q0 -106 49 -201.5t136 -158.5l201 -146q19 -14 42 -14t42 13l201 147q87 63 136 158.5t49 201.5v245q0 21 -14.5 41t-35.5 26v0zM892 430v0q0 -95 -43.5 -180.5
t-121.5 -141.5l-201 -147q-6 -4 -14 -4t-14 4l-201 147q-78 56 -121.5 141.5t-43.5 180.5v245q0 17 17 22l348 112q8 2 15.5 2t14.5 -2l349 -112q6 -2 11 -8.5t5 -13.5v-245v0z" />
    <glyph glyph-name="map" unicode="&#xe64b;" 
d="M977 -48l-278 127l-209 -117l-211 94l-232 -103v723l230 153l212 -94l210 94l278 -152v-725v0zM279 107l209 -93l209 117l234 -107v625l-234 128l-208 -93l-208 92l-188 -125v-627l186 83v0zM325 232q-1 -9 -7.5 -15t-15 -6t-15 6t-7.5 15v403q1 9 7.5 15t15 6t15 -6
t7.5 -15v-403zM530 162q0 -9 -6.5 -15t-15.5 -6t-15.5 6t-6.5 15v403q0 9 6.5 15t15.5 6t15.5 -6t6.5 -15v-403zM736 247q-1 -8 -7.5 -14.5t-15 -6.5t-15 6.5t-7.5 14.5v404q1 8 7.5 14.5t15 6.5t15 -6.5t7.5 -14.5v-404z" />
    <glyph glyph-name="logout" unicode="&#xe64c;" 
d="M185 128v512q0 29 20 49.5t49 20.5h303v46h-326v0q-38 0 -65.5 -27t-27.5 -66v0v-558v0q0 -39 27.5 -66t65.5 -27v0h326v46h-303v0q-29 0 -49 20.5t-20 49.5v0v0zM924 400l-164 165q-7 7 -17 7t-16.5 -6.5t-6.5 -16.5t7 -17l124 -125h-457q-9 0 -15.5 -7t-6.5 -16
t6.5 -16t15.5 -7h457l-124 -125q-7 -7 -7 -17q0 -9 6.5 -16t16.5 -7t17 7l164 165q7 6 7 16t-7 17v-1z" />
    <glyph glyph-name="medtitle" unicode="&#xe64d;" 
d="M512 668v0q-79 0 -135 -56t-56 -135v0v0q0 -79 56 -135t135 -56v0q79 0 135 56t56 135t-56 135t-135 56zM512 331h-2q-61 0 -103.5 43t-42.5 103.5t42.5 103t103.5 42.5h2q60 -1 102 -43.5t42 -102.5t-42 -102.5t-102 -43.5zM798 321q17 30 28.5 75.5t11.5 80.5v0
q0 89 -43.5 164t-118.5 118.5t-164 43.5t-164 -43.5t-118.5 -118.5t-43.5 -164q0 -83 40 -156l-134 -232l164 -41l118 -122l130 226q2 0 4.5 -0.5t3.5 -0.5t4 0.5t4 0.5l130 -226l118 122l164 41l-134 232v0zM368 9l-78 76l-123 41l88 152q31 -41 89.5 -76.5t109.5 -44.5z
M512 196q-116 0 -198.5 82.5t-82.5 198.5t82.5 198.5t198.5 82.5t198.5 -82.5t82.5 -198.5t-82.5 -198.5t-198.5 -82.5zM734 85l-78 -76l-86 148q51 9 109.5 44.5t89.5 76.5l88 -152z" />
    <glyph glyph-name="mobile" unicode="&#xe64e;" 
d="M721 803h-442q-38 0 -65.5 -27.5t-27.5 -65.5v-698v0q0 -39 27.5 -66t65.5 -27v0h442v0q39 0 66.5 27t27.5 66v0v698q0 38 -27.5 65.5t-66.5 27.5zM582 -35h-163v47h163v-47zM768 105q0 -20 -13.5 -33.5t-33.5 -13.5h-442q-19 0 -32.5 13.5t-13.5 33.5v605
q0 19 13.5 32.5t32.5 13.5h442q20 0 33.5 -13.5t13.5 -32.5v-605z" />
    <glyph glyph-name="menu" unicode="&#xe64f;" 
d="M848 658h-718v0q-9 0 -9 -8v-18q0 -9 9 -9h718q8 0 8 9v18v0q0 8 -8 8zM848 378h-718v0q-9 0 -9 -8v-18q0 -9 9 -9h718q8 0 8 9v18v0q0 8 -8 8v0zM848 98h-718v0q-9 0 -9 -9v-17q0 -9 9 -9h718q9 0 9 9v17q-1 9 -9 9v0v0z" />
    <glyph glyph-name="nocheck" unicode="&#xe650;" 
d="M492 803q114 0 210.5 -56t152.5 -152.5t56 -210.5t-56 -210.5t-152.5 -152.5t-210.5 -56t-210.5 56t-152.5 152.5t-56 210.5t56 210.5t152.5 152.5t210.5 56z" />
    <glyph glyph-name="microphone" unicode="&#xe651;" 
d="M895 304q-49 -106 -139.5 -172t-201.5 -77v-107h83q5 0 14.5 0.5t12.5 0t7.5 -2t5.5 -6.5t1 -13q0 -20 -13 -30.5t-36 -10.5h-220q-42 0 -42 41q0 9 1 13.5t5.5 6t7.5 2t12.5 0t15.5 -0.5h83v105q-117 6 -214 72.5t-148 178.5q-11 18 -10 34.5t19 24.5t35 -5.5t27 -35.5
q41 -89 130.5 -149.5t181 -60.5t181 60.5t130.5 149.5q10 22 27 35.5t35 5.5t18.5 -24.5t-9.5 -34.5v0zM692 308q-17 -58 -65.5 -86.5t-114.5 -28.5q-69 0 -113.5 45t-52.5 104v374q3 62 50 114t116 52q77 0 124.5 -39.5t62.5 -126.5v-394q0 -5 -7 -14z" />
    <glyph glyph-name="noread" unicode="&#xe652;" 
d="M884 733h-744q-39 0 -66 -27t-27 -66v-559v0q0 -38 27 -65.5t66 -27.5v0h744v0q39 0 66 27.5t27 65.5v0v559q0 39 -27 66t-66 27zM931 81q0 -19 -13.5 -32.5t-33.5 -13.5h-744q-20 0 -33.5 13.5t-13.5 32.5v559q0 19 13.5 33t33.5 14h744q20 0 33.5 -14t13.5 -33v-559z
M314 277l-149 -148q-7 -7 -7 -17t7 -16.5t17 -6.5t16 7l148 148q8 7 8 17q0 9 -7 16t-17 7t-16 -7zM545 338q-14 -14 -33 -14t-33 14l-278 279h-66l344 -345q14 -13 33 -13t33 13l344 345h-65l-279 -279v0zM710 277q-6 7 -16 7t-17 -7t-7 -16q0 -10 8 -17l148 -148
q6 -7 16 -7t17 6.5t7 16.5t-7 17z" />
    <glyph glyph-name="notice" unicode="&#xe653;" 
d="M977 361v0q0 39 -27 72.5t-65 41.5v265q0 10 -7 22.5t-15 15.5q-5 2 -10 2q-14 0 -23 -10q-77 -88 -177 -138t-235 -61h-6.5t-6.5 -1v0h-157q-13 0 -15 -1q-81 -11 -133.5 -69t-52.5 -139q0 -80 61.5 -137.5t145.5 -69.5v0v0v-1v-1q0 -80 61 -145t125 -65q16 0 22.5 12.5
t0 25t-22.5 12.5q-57 0 -97.5 49.5t-40.5 110.5v0h103v0q1 0 2.5 -0.5t2.5 -0.5q263 -21 420 -199q9 -10 22 -10q6 0 11 2q1 0 5 1.5t5.5 2t4.5 2t4 3t2 4t1 5.5v285q38 8 65 41t27 73v0zM372 198h-105q-67 0 -120.5 48.5t-53.5 114t53.5 114.5t120.5 49h105v-326v0zM837 13
q-71 81 -181 128t-237 60v319q247 27 418 190v-697v0zM885 295v131q20 -7 33 -25t13 -40.5t-13 -40t-33 -25.5z" />
    <glyph glyph-name="myorder" unicode="&#xe654;" 
d="M954 314h-233q-9 1 -15.5 7.5t-6.5 16t6.5 16t15.5 7.5h233q9 -1 15.5 -7.5t6.5 -16t-6.5 -16t-15.5 -7.5zM954 477h-209q-9 1 -15.5 7.5t-6.5 16t6.5 16t15.5 7.5h209q9 -1 15.5 -7.5t6.5 -16t-6.5 -16t-15.5 -7.5zM954 640h-209q-9 0 -15.5 7t-6.5 16t6.5 16t15.5 8
h209q9 -1 15.5 -8t6.5 -16t-6.5 -16t-15.5 -7zM535 342q113 -37 184.5 -134t71.5 -220q0 -9 -7 -15.5t-16 -6.5t-16 6.5t-7 15.5q0 89 -43.5 164t-119 118.5t-164 43.5t-163.5 -43.5t-118.5 -118.5t-43.5 -164q0 -9 -7 -15.5t-16 -6.5t-16 6.5t-7 15.5q0 123 71.5 220
t184.5 134q-58 29 -99 96t-41 132q0 106 75 181t181 75t181 -75t75 -181q0 -65 -41 -131.5t-99 -96.5zM419 780q-87 0 -148.5 -61.5t-61.5 -148.5t61.5 -148t148.5 -61t148 61t61 148t-61 148.5t-148 61.5zM815 198h139q9 -1 15.5 -7.5t6.5 -16t-6.5 -16t-15.5 -7.5h-139
q-10 1 -16.5 7.5t-6.5 16t6.5 16t16.5 7.5z" />
    <glyph glyph-name="order-add" unicode="&#xe655;" 
d="M512 803q-114 0 -210.5 -56t-152.5 -152.5t-56 -210.5t56 -210.5t152.5 -152.5t210.5 -56t210.5 56t152.5 152.5t56 210.5t-56 210.5t-152.5 152.5t-210.5 56zM512 -12q-107 0 -198.5 53t-144.5 144.5t-53 198.5t53 198.5t144.5 144.5t198.5 53t198.5 -53t144.5 -144.5
t53 -198.5t-53 -198.5t-144.5 -144.5t-198.5 -53zM721 407h-186v186q0 10 -7 16.5t-16 6.5t-16 -6.5t-7 -16.5v-186h-186q-10 0 -16.5 -7t-6.5 -16t6.5 -16t16.5 -7h186v-210q0 -9 7 -15.5t16 -6.5t16 6.5t7 15.5v210h186q10 0 16.5 7t6.5 16t-6.5 16t-16.5 7z" />
    <glyph glyph-name="order" unicode="&#xe656;" 
d="M652 756h-280v-46h280v46zM884 756h-69v-46h69q20 0 33.5 -13.5t13.5 -33.5v-93h-838v93q0 20 13.5 33.5t33.5 13.5h69v46h-69q-39 0 -66 -27t-27 -66v-628v0q0 -39 27 -66t66 -27v0h744q39 0 66 27t27 66v628q0 39 -27 66t-66 27v0zM931 35q0 -19 -13.5 -33t-33.5 -14
h-744q-20 0 -33.5 14t-13.5 33v489h838v-489v0zM290.5 663q14.5 0 25 10.5t10.5 24.5v70q-1 14 -11 23.5t-24 9.5t-24 -9.5t-11 -23.5v-70q0 -14 10 -24.5t24.5 -10.5zM733.5 663q14.5 0 24.5 10.5t10 24.5v70q-1 14 -11 23.5t-24 9.5t-24 -9.5t-11 -23.5v-70
q0 -14 10.5 -24.5t25 -10.5zM268 291h1q24 0 41 17t17 41t-17 41t-41 17h-1q-24 0 -40.5 -17t-16.5 -40.5t16.5 -41t40.5 -17.5zM500 291h2q24 0 41 17t17 41t-17 41t-41 17h-2q-23 0 -40 -17t-17 -40.5t17 -41t40 -17.5zM733 291h1q25 0 42 17t17 41t-17 41t-42 17h-1
q-23 0 -40 -17t-17 -40.5t17 -41t40 -17.5zM268 105h1q24 0 41 17t17 41t-17 41t-41 17h-1q-24 0 -40.5 -17.5t-16.5 -41t16.5 -40.5t40.5 -17zM500 105h2q24 0 41 17t17 41t-17 41t-41 17h-2q-23 0 -40 -17.5t-17 -41t17 -40.5t40 -17z" />
    <glyph glyph-name="payment" unicode="&#xe657;" 
d="M512 803q-114 0 -210.5 -56t-152.5 -152.5t-56 -210.5t56 -210.5t152.5 -152.5t210.5 -56t210.5 56t152.5 152.5t56 210.5t-56 210.5t-152.5 152.5t-210.5 56zM512 175q-87 0 -148 61t-61 148t61 148t148 61t148 -61t61 -148t-61 -148t-148 -61z" />
    <glyph glyph-name="order-manager" unicode="&#xe658;" 
d="M768 431h-140q-9 -1 -15.5 -8t-6.5 -16t6.5 -15.5t15.5 -7.5h140q9 1 15.5 7.5t6.5 15.5t-6.5 16t-15.5 8zM372 640h303q10 0 16.5 7t6.5 16v70q0 10 -6.5 16.5t-16.5 6.5h-53q-11 31 -38 50.5t-60.5 19.5t-60.5 -19.5t-38 -50.5h-53q-9 0 -16 -6.5t-7 -16.5v-70
q0 -9 7 -16t16 -7v0zM407 710h61l-3 11q1 24 18 40.5t40.5 16.5t40.5 -16.5t18 -40.5l-3 -11h61q5 0 8.5 -3.5t3.5 -8.5t-3.5 -8t-8.5 -3h-233q-5 0 -8 3t-3 8t3 8.5t8 3.5v0zM768 268h-140q-9 -1 -15.5 -7.5t-6.5 -16t6.5 -16t15.5 -7.5h140q9 1 15.5 7.5t6.5 16t-6.5 16
t-15.5 7.5zM884 733h-139v-46h116q29 0 49.5 -20.5t20.5 -49.5v-582q0 -29 -20.5 -49.5t-49.5 -20.5h-698q-29 0 -49.5 20.5t-20.5 49.5v582q0 29 20.5 49.5t49.5 20.5h140v46h-163v0q-39 0 -66 -27t-27 -66v0v-628v0q0 -39 27 -66t66 -27v0h744v0q39 0 66 27t27 66v0v628v0
q0 39 -27 66t-66 27v0zM447 295q17 15 29.5 41t12.5 48q0 48 -34 82t-82.5 34t-82.5 -34t-34 -82q0 -53 42 -89q-40 -20 -64.5 -58.5t-24.5 -85.5q0 -3 2 -15l-2 -8q1 -9 8 -15.5t16 -6.5t16 6.5t7 15.5h2q-2 11 -2 23q0 48 34 82t82.5 34t82.5 -34t34 -82q0 -12 -3 -23h3
q0 -9 7 -15.5t16 -6.5t16 6.5t7 15.5q0 4 -1 8q1 11 1 15q0 47 -24 85.5t-64 58.5v0zM372 314h-1q-29 0 -49.5 20.5t-20.5 49.5t20.5 49.5t49.5 20.5h1q29 -1 49 -21.5t20 -48.5t-20 -48.5t-49 -21.5z" />
    <glyph glyph-name="order-time" unicode="&#xe659;" 
d="M884 -58h-744q-39 0 -66 27t-27 66v628v0q0 39 27 66t66 27v0h69v-46h-69q-20 0 -33.5 -13.5t-13.5 -33.5v-93h838v93q0 20 -13.5 33.5t-33.5 13.5h-70v46h70v0q39 0 66 -27t27 -66v0v-628v0q0 -39 -27 -66t-66 -27v0v0zM931 524h-838v-489q0 -19 13.5 -33t33.5 -14h744
q20 0 33.5 14t13.5 33v489v0zM570.5 81q-43.5 0 -74.5 31t-31 74q0 50 40 82q-16 12 -28 36t-12 45q0 43 31 74t74.5 31t74 -31t30.5 -74q0 -50 -40 -81q17 -13 28.5 -37t11.5 -45q0 -43 -30.5 -74t-74 -31zM570 407h-1q-24 0 -41 -17t-17 -41t17 -41t41 -17h1
q24 0 40.5 17.5t16.5 41t-16.5 40.5t-40.5 17zM570 244h-1q-24 0 -41 -17t-17 -41t17 -41t41 -17h1q24 1 40.5 18t16.5 40.5t-16.5 40.5t-40.5 17zM349 81q-10 0 -16.5 7t-6.5 17v326q0 9 7 15.5t16 6.5t16 -6.5t7 -15.5v-326q0 -10 -6.5 -17t-16.5 -7zM733.5 663
q-14.5 0 -25 10.5t-10.5 24.5v70q1 14 11 23.5t24 9.5t24 -9.5t11 -23.5v-70q0 -14 -10 -24.5t-24.5 -10.5zM372 756h280v-46h-280v46zM290.5 663q-14.5 0 -24.5 10.5t-10 24.5v70q1 14 11 23.5t24 9.5t24 -9.5t11 -23.5v-70q0 -14 -10.5 -24.5t-25 -10.5z" />
    <glyph glyph-name="picture-o" unicode="&#xe65a;" 
d="M861 -35h-698v0q-48 0 -82 34t-34 82v0v489v0q0 48 34 82.5t82 34.5v0h64q116 139 145 139h280q30 0 134 -139h75v0q48 0 82 -34.5t34 -82.5v0v-489v0q0 -48 -34 -82t-82 -34v0v0zM298 321.5q0 -88.5 63 -151t151 -62.5t151 62.5t63 151t-63 151t-151 62.5t-151 -62.5
t-63 -151z" />
    <glyph glyph-name="play" unicode="&#xe65b;" 
d="M512 756q-101 0 -186.5 -50t-135.5 -135.5t-50 -186.5t50 -186.5t135.5 -135.5t186.5 -50t186.5 50t135.5 135.5t50 186.5t-50 186.5t-135.5 135.5t-186.5 50zM512 35q-94 0 -174.5 46t-127.5 126.5t-47 176.5t47 176.5t127.5 126.5t174.5 46t174.5 -46t127.5 -126.5
t47 -176.5t-47 -176.5t-127.5 -126.5t-174.5 -46zM442 216l219 163l-219 168v-331z" />
    <glyph glyph-name="position-o" unicode="&#xe65c;" 
d="M512 617h-2q-58 0 -99 -41t-41 -99t41 -99t99 -41h2q57 1 97.5 42t40.5 98t-40.5 98t-97.5 42zM512 384h-2q-39 0 -66.5 27.5t-27.5 66t27.5 65.5t66.5 27h2q38 -1 64.5 -28t26.5 -64.5t-26.5 -65t-64.5 -28.5zM512 826q-101 0 -187 -49t-135.5 -134t-49.5 -185
q0 -57 38 -136t93 -151t109.5 -135.5t93.5 -102.5l38 -38q8 8 21.5 21t52 54.5t73.5 82.5t78 97.5t74 107t52 104.5t21 96q0 100 -49.5 185t-135.5 134t-187 49zM512 -35l-35 35t-78.5 86t-99 122t-78 128.5t-35.5 120.5q0 88 43.5 162t118.5 117.5t164 43.5t164 -43.5
t118.5 -117.5t43.5 -162q0 -50 -33.5 -119t-81.5 -132t-96 -118.5t-81.5 -89.5t-33.5 -33z" />
    <glyph glyph-name="pay" unicode="&#xe65d;" 
d="M506.5 803q-113.5 0 -210 -56t-152.5 -152.5t-56 -210.5t56 -210.5t152.5 -152.5t210 -56t210 56t152.5 152.5t56 210.5t-56 210.5t-152.5 152.5t-210 56zM506 27q-97 0 -179 48t-129.5 130t-47.5 179t47.5 179t129.5 130t179 48t179.5 -48t130 -130t47.5 -179
t-47.5 -179t-130 -130t-179.5 -48zM659 420q0 -10 -7 -17t-17 -7h-258q-9 0 -16 7t-7 17t7 16.5t16 6.5h258q10 0 17 -6.5t7 -16.5v0zM636 330q0 -10 -6 -17t-15 -7h-218q-8 0 -14 7t-6 16.5t6 16.5t14 7h219q8 0 14 -7t6 -16v0zM506.5 182q-9.5 0 -16.5 6t-7 14v221
q0 9 6.5 14.5t16.5 5.5t17 -5.5t7 -14.5v-221q0 -8 -7 -14t-16.5 -6zM491 400q-9 -4 -17.5 -3t-10.5 7l-75 151q-2 6 2 13t13 11.5t17 3.5t11 -7l74 -152q3 -5 -1 -12.5t-13 -11.5zM517 402q-9 4 -13 11t-2 13l72 153q3 6 11 7t17 -3t13.5 -11t1.5 -13l-72 -153
q-2 -6 -10.5 -7t-17.5 3z" />
    <glyph glyph-name="position" unicode="&#xe65e;" 
d="M881 658q19 -37 32.5 -92.5t13.5 -96.5v0q0 -158 -105 -276q-3 -4 -7 -8l-264 -277q-3 -6 -8 -12q-12 -12 -29 -12q-9 0 -18 4q-8 4 -14 10q-2 2 -4 5l-269 282q-4 4 -7 9q-43 49 -73.5 129.5t-30.5 145.5v0q0 112 55.5 207.5t151 151t207.5 55.5q120 0 222 -65
q8 -3 15 -9q30 -21 64.5 -58t53.5 -69q12 -9 14 -24v0zM512 634q-69 0 -118.5 -49t-49.5 -118.5t49.5 -118.5t118.5 -49t118.5 49t49.5 118.5t-49.5 118.5t-118.5 49z" />
    <glyph glyph-name="practice" unicode="&#xe65f;" 
d="M209 81h606v47h-606v-47zM791 733h-209v23q-1 28 -21.5 48t-48.5 20t-48.5 -20t-21.5 -48v-23h-209v0q-48 0 -82.5 -34t-34.5 -82v0v-582v0q0 -48 34.5 -82t82.5 -34v0h558v0q48 0 82.5 34t34.5 82v0v582v0q0 48 -34.5 82t-82.5 34v0v0zM489 756q0 9 7 15.5t16 6.5
t16 -6.5t7 -15.5v-46q0 -9 -7 -15.5t-16 -6.5t-16 6.5t-7 15.5v46zM861 58q0 -38 -27 -65.5t-66 -27.5h-512v0q-39 0 -66 27.5t-27 65.5v0v535v0q0 39 27 66.5t66 27.5v0h186v23q1 -28 21.5 -48t48.5 -20t48.5 20t21.5 48v-23h186v0q39 0 66 -27.5t27 -66.5v0v-535zM349 221
q1 -9 7.5 -15.5t16 -6.5t16 6.5t7.5 15.5q0 48 34 82t82 34t82 -34t34 -82q1 -9 7.5 -15.5t16 -6.5t16 6.5t7.5 15.5q0 46 -24.5 84.5t-64.5 59.5q18 14 30 40t12 49q0 48 -34 82t-82 34t-82 -34t-34 -82q0 -54 41 -89q-40 -21 -64 -59.5t-24 -84.5v0zM512 524h1
q29 0 49.5 -20.5t20.5 -49.5t-20.5 -49.5t-49.5 -20.5h-1q-28 1 -48 21.5t-20 48.5t20 48.5t48 21.5z" />
    <glyph glyph-name="prune" unicode="&#xe660;" 
d="M512 826q-95 0 -181 -37t-148.5 -99t-99 -148.5t-36.5 -181t36.5 -180.5t99 -148.5t148.5 -99.5t181 -37t181 37t148.5 99.5t99 148.5t36.5 180.5t-36.5 181t-99 148.5t-148.5 99t-181 37zM512 -58q-114 0 -210.5 56t-152.5 152.5t-56 210.5t56 210.5t152.5 152.5
t210.5 56t210.5 -56t152.5 -152.5t56 -210.5t-56 -210.5t-152.5 -152.5t-210.5 -56zM791 384h-558q-9 0 -15.5 -7t-6.5 -16t6.5 -16t15.5 -8h558q9 1 15.5 8t6.5 16t-6.5 16t-15.5 7z" />
    <glyph glyph-name="plus-with-border" unicode="&#xe661;" 
d="M950 -128h-56v16h40v0q7 0 11.5 4.5t4.5 11.5v40h16v-56q0 -7 -4.5 -11.5t-11.5 -4.5zM950 88h16v-64h-16v64zM950 233h16v-64h-16v64zM950 377h16v-64h-16v64zM950 529h16v-72h-16v72zM950 673h16v-64h-16v64zM950 802v0q0 6 -4.5 11t-11.5 5h-40v16h56v0q7 0 11.5 -5
t4.5 -11v-65h-16v49zM750 -112h64v-16h-64v16zM750 834h64v-16h-64v16zM501 112h-24v217h-216v24h216v224h24v-224h225v-24h-225v-217zM606 834h64v-16h-64v16zM461 834h64v-16h-64v16zM309 834h72v-16h-72v16zM165 -112h64v-16h-64v16zM165 834h64v-16h-64v16zM5 -112v56
h16v-40q0 -7 4.5 -11.5t11.5 -4.5h48v-16h-64v0q-7 0 -11.5 4.5t-4.5 11.5zM21 802v-49h-16v65q0 6 4.5 11t11.5 5h64v-16h-48v0q-7 0 -11.5 -5t-4.5 -11zM21 609h-16v64h16v-64zM21 457h-16v72h16v-72zM21 313h-16v64h16v-64zM21 169h-16v64h16v-64zM21 24h-16v64h16v-64z
M381 -128h-72v16h72v-16zM525 -128h-64v16h64v-16zM670 -128h-64v16h64v-16z" />
    <glyph glyph-name="search" unicode="&#xe662;" 
d="M971 -66l-229 230l3 3l3 3q74 74 100.5 173t0 198t-100 172.5t-172.5 100t-198 0t-173 -100t-100 -172.5t0 -198t100 -173q67 -67 156 -94.5t179.5 -12t165.5 70.5l232 -232q7 -8 17 -8t16.5 7t6.5 17t-7 16v0zM238 204q-65 65 -88 152t0 173.5t88 151.5t152 88t174 0
t151.5 -88t88 -151.5t0 -173.5t-88 -152t-151.5 -88t-174 0t-152 88z" />
    <glyph glyph-name="service" unicode="&#xe663;" 
d="M153.5 400q42.5 0 72.5 -30t30 -72.5t-30 -72.5t-72.5 -30t-72.5 30t-30 72.5t30 72.5t72.5 30zM154 451q-64 0 -109 -45t-45 -108.5t45 -108.5t109 -45v0q63 0 108 45t45 108.5t-45 108.5t-108 45v0zM691 168v-59q0 -64 -45 -109t-109 -45h-205q-63 0 -108 45t-45 109
v74l-51 3v-77q0 -85 60 -145t144 -60h205q85 0 145 60t60 145v51zM523 742q-52 -28 -84 -82t-32 -119v-175q0 -94 63 -160.5t151 -66.5h187q89 0 151.5 66.5t62.5 160.5v175q0 63 -30.5 116.5t-81.5 82.5l-15 -51q36 -24 56 -63.5t20 -84.5v-175q0 -73 -48 -124.5
t-115 -51.5h-187q-67 0 -114.5 51.5t-47.5 124.5v175q0 46 21 86t57 64zM574 794q6 0 10 -4.5t4 -10.5v-73q0 -6 -4 -10.5t-10 -4.5t-10 4.5t-4 10.5v73q0 6 4 10.5t10 4.5zM574 845q-27 0 -46.5 -19.5t-19.5 -46.5v-73q0 -28 19.5 -47t46.5 -19t46.5 19t19.5 47v73
q0 27 -19.5 46.5t-46.5 19.5zM855.5 794q5.5 0 10 -4.5t4.5 -10.5v-73q0 -6 -4.5 -10.5t-10 -4.5t-10 4.5t-4.5 10.5v73q0 6 4.5 10.5t10 4.5zM855.5 845q-27.5 0 -46.5 -19.5t-19 -46.5v-73q0 -28 19 -47t46.5 -19t46.5 19t19 47v73q0 27 -19 46.5t-46.5 19.5z" />
    <glyph glyph-name="read" unicode="&#xe664;" 
d="M978 556l-433 316q-7 7 -17 7q-9 0 -16 -6v0v0q-7 6 -16 6q-10 0 -17 -7l-433 -316q-6 -6 -6 -16q0 -9 7 -16v-512q0 -39 27 -66t66 -27h744v0q39 0 66.5 27t27.5 66v0v512q6 7 6 16q0 10 -6 16v0zM931 35q0 -29 -20.5 -49.5t-49.5 -20.5h-698q-29 0 -49.5 20.5
t-20.5 49.5v499l419 306l419 -306v-499zM479 315l-267 185h-76l343 -251q14 -14 33 -14t33 14l343 251h-75l-268 -185q-14 -14 -33 -14t-33 14zM314 207l-149 -148q-7 -7 -7 -17t7 -16.5t17 -6.5t16 7l148 148q8 7 8 17q0 9 -7 16t-17 7t-16 -7zM710 207q-6 7 -16 7t-17 -7
t-7 -16q0 -10 8 -17l148 -148q6 -7 16 -7t17 6.5t7 16.5t-7 17z" />
    <glyph glyph-name="share" unicode="&#xe665;" 
d="M934 431l-3 -1v-395q0 -19 -13.5 -33t-33.5 -14h-744q-20 0 -33.5 14t-13.5 33v605q0 19 13.5 33t33.5 14h311l38 42l-6 4h-343v0q-39 0 -66.5 -27t-27.5 -66v0v-605v0q0 -39 27.5 -66t66.5 -27v0h744v0q39 0 66 27t27 66v0v442l-43 -46v0zM396 387q0 -62 24 -119
q18 93 102 166.5t176 75.5v-117v-3q0 -8 5 -14v0q6 -6 15 -6v0q9 0 15 8l216 217q5 6 5 14v1.5v0.5q0 9 -5 14l-217 219q-6 6 -14.5 6t-14.5 -6q-5 -6 -5 -14v-3v-117q-80 0 -150.5 -46t-111 -120.5t-40.5 -156.5v0zM696 670h49v108l163 -168l-163 -167v107h-49
q-68 0 -148 -44.5t-113 -98.5q0 26 12 60t35.5 69.5t54 65.5t73 49t86.5 19v0z" />
    <glyph glyph-name="star-small" unicode="&#xe666;" 
d="M110 543h254l109 257q1 3 3.5 7.5t9.5 13t15 11.5t20 -4t25 -28l109 -257h254q4 -1 10 -3t17.5 -11t15.5 -20t-6 -31.5t-37.5 -44t-56.5 -47.5t-50 -41t-38.5 -30.5t-27.5 -20.5l-9 -7l73 -256q0 -2 0.5 -4t1.5 -8.5t1 -13t-1 -14.5t-3.5 -14.5t-8 -12.5t-13.5 -9
t-21 -2.5t-29 4.5q-47 31 -101.5 77t-85 76t-30.5 31l-218 -184q-1 0 -3.5 -1t-9.5 -2.5t-13.5 -2.5t-15 -0.5t-15 2.5t-12 8t-8.5 14.5t-2 22.5t6 33l73 256l-181 147q-1 -1 -9.5 6t-17.5 18.5t-14 25t4.5 30t35.5 29.5v0z" />
    <glyph glyph-name="three" unicode="&#xe667;" 
d="M910 644h-796q-36 0 -61.5 -25.5t-25.5 -61.5v-346q0 -36 25.5 -61.5t61.5 -25.5h796q36 0 61.5 25.5t25.5 61.5v346q0 36 -25.5 61.5t-61.5 25.5v0v0zM203 516h284v-29h-284v29zM472 400v-29h-253v29h253zM510 242h-328v28h328v-28v0zM829 310h-26v21h-95v-115h-27v115
h-95v-21h-26v220h269v-220v0zM803 506h-95v-61h95v61zM681 420h-95v-65h95v65zM803 420h-95v-65h95v65zM681 506h-95v-61h95v61z" />
    <glyph glyph-name="tel" unicode="&#xe668;" 
d="M227 -50q-38 0 -65 27l-24 24q-37 38 -42 101.5t20 138t79 158t131 161.5q107 108 223 171t209 63q77 0 121 -45l23 -24q13 -13 20.5 -30t7.5 -36q0 -38 -28 -66l-93 -95q-27 -26 -66 -26t-65 26l-24 24q-4 4 -8.5 6.5t-9.5 3.5t-11 1q-63 0 -168 -106q-31 -31 -53 -59.5
t-33.5 -50t-16 -39.5t-2 -30t10.5 -20l24 -23q17 -18 23.5 -42.5t0 -48.5t-23.5 -42l-94 -94q-27 -28 -66 -28v0zM758 741q-81 0 -188.5 -59.5t-206.5 -159.5q-66 -67 -116 -141t-75 -139t-25 -119.5t29 -83.5l23 -24q11 -11 28 -11t29 11l93 95q12 12 12 28.5t-12 28.5
l-23 24q-10 10 -17 22.5t-9 37.5t7 53.5t37.5 71t75.5 89.5q120 122 205 122q40 0 66 -27l24 -24q5 -6 12.5 -8.5t15.5 -2.5t15.5 2.5t12.5 8.5l94 95q12 12 12 28.5t-12 28.5l-23 24q-29 29 -84 29v0z" />
    <glyph glyph-name="set" unicode="&#xe669;" 
d="M512 570q-87 0 -148 -61.5t-61 -148t61 -148t148 -61.5t148 61.5t61 148t-61 148t-148 61.5zM512 198q-67 0 -115 47.5t-48 115t48 115.5t115 48t115 -48t48 -115.5t-48 -115t-115 -47.5zM908 477h-67q-6 17 -14 34l47 47q14 14 14 33t-14 33l-99 99q-13 13 -32.5 13
t-32.5 -13l-48 -48q-16 8 -34 15v66q0 20 -13.5 33.5t-32.5 13.5h-140q-19 0 -32.5 -13.5t-13.5 -33.5v-66q-17 -6 -34 -15l-48 48q-13 13 -32.5 13t-32.5 -13l-99 -99q-14 -14 -14 -33t14 -33l47 -47q-8 -18 -14 -34h-67q-19 0 -32.5 -13.5t-13.5 -32.5v-140
q0 -19 13.5 -33t32.5 -14h67q6 -17 14 -34l-47 -47q-14 -13 -14 -32.5t14 -33.5l99 -98q13 -14 32.5 -14t32.5 14l48 47q19 -9 34 -14v-67q0 -19 13.5 -33t32.5 -14h140q19 0 32.5 14t13.5 33v67q18 6 34 14l47 -47q14 -14 33.5 -14t32.5 14l99 98q14 14 14 33.5t-14 32.5
l-47 48q8 18 14 33h67q19 0 32.5 14t13.5 33v139q0 20 -13.5 33.5t-32.5 13.5v0zM908 314q0 -9 -7 -16t-17 -7h-78q-11 -47 -37 -89l56 -55q6 -7 6 -16.5t-6 -16.5l-66 -66q-7 -7 -16.5 -7t-16.5 7l-55 55q-42 -25 -89 -36v-79q0 -9 -7 -16t-16 -7h-94q-9 0 -16 7t-7 16v79
q-47 11 -89 36l-55 -55q-7 -7 -16.5 -7t-16.5 7l-66 66q-6 7 -6 16.5t6 16.5l56 55q-26 42 -37 89h-78q-10 0 -17 7t-7 16v93q0 10 7 16.5t17 6.5h78q11 48 37 89l-56 56q-6 6 -6 16t6 16l66 66q7 7 16.5 7t16.5 -7l55 -55q42 26 89 37v78q0 10 7 16.5t16 6.5h94
q9 0 16 -6.5t7 -16.5v-78q47 -11 89 -37l55 55q7 7 16.5 7t16.5 -7l66 -66q6 -6 6 -16t-6 -16l-56 -56q26 -41 37 -89h78q10 0 17 -6.5t7 -16.5v-93v0z" />
    <glyph glyph-name="time" unicode="&#xe66a;" 
d="M699 545l-194 -194l-127 128q-7 7 -17 7t-16.5 -7t-6.5 -16q0 -10 7 -17l127 -128l-36 -36q-7 -7 -7 -17q0 -9 6.5 -16t16.5 -7t16 7l37 37l37 -38q7 -7 17 -7q9 0 16 7t7 17q0 9 -7 16l-37 37l194 194q7 7 7 16.5t-7 16.5t-16.5 7t-16.5 -7zM512 826q-95 0 -181 -37
t-148.5 -99t-99 -148.5t-36.5 -181t36.5 -180.5t99 -148.5t148.5 -99.5t181 -37t181 37t148.5 99.5t99 148.5t36.5 180.5t-36.5 181t-99 148.5t-148.5 99t-181 37zM535 -57v115q0 9 -7 15.5t-16 6.5t-16 -6.5t-7 -15.5v-115q-104 6 -193 59.5t-142.5 142t-59.5 192.5h115
q10 1 16.5 8t6.5 16t-6.5 16t-16.5 7h-114q6 104 60 192.5t142 142t192 59.5v-115q0 -9 7 -15.5t16 -6.5t16 6.5t7 15.5v115q104 -6 192 -59.5t142 -142t60 -192.5h-114q-10 -1 -16.5 -7.5t-6.5 -15.5t6.5 -16t16.5 -8h115q-6 -104 -59.5 -192.5t-142 -142t-193.5 -59.5v0z
" />
    <glyph glyph-name="user-circle-o" unicode="&#xe66b;" 
d="M535.5 826q-94.5 0 -181 -37t-148.5 -99t-99 -148.5t-37 -181t37 -180.5t99 -148.5t148.5 -99.5t181 -37t180.5 37t148.5 99.5t99.5 148.5t37 180.5t-37 181t-99.5 148.5t-148.5 99t-180.5 37zM254 51q34 86 110 139.5t171 53.5t171.5 -53.5t109.5 -139.5
q-56 -52 -128.5 -80.5t-152.5 -28.5t-152 28.5t-129 80.5v0zM396 431v2q0 58 40.5 98.5t98.5 40.5t99 -40.5t41 -98.5v-3q-1 -57 -41.5 -97t-98 -40t-98 40t-41.5 97v1zM851 87q-31 67 -86.5 116.5t-126.5 71.5q38 26 60.5 67t22.5 89v0q0 77 -54.5 131.5t-131.5 54.5
t-131.5 -54.5t-54.5 -131.5v0q0 -48 22.5 -89t60.5 -66q-71 -23 -126.5 -72.5t-86.5 -117.5q-103 118 -103 274v1q0 114 56 210.5t152.5 152.5t210.5 56t210.5 -56t152.5 -152.5t56 -210.5v0q0 -157 -103 -275v1z" />
    <glyph glyph-name="visit-time" unicode="&#xe66c;" 
d="M954 221h-279q-9 0 -15.5 -7t-6.5 -16t6.5 -16t15.5 -7h279q9 0 15.5 7t6.5 16t-6.5 16t-15.5 7zM954 81h-279q-9 0 -15.5 -7t-6.5 -16t6.5 -16t15.5 -7h279q9 0 15.5 7t6.5 16t-6.5 16t-15.5 7zM954 -58h-279q-9 -1 -15.5 -7.5t-6.5 -16t6.5 -16t15.5 -7.5h279
q9 1 15.5 7.5t6.5 16t-6.5 16t-15.5 7.5zM561 318l194 194q7 7 7 17t-7 16.5t-16 6.5q-10 0 -17 -7l-194 -194l-127 128q-7 7 -17 7t-16.5 -7t-6.5 -16q0 -10 7 -17l127 -128l-36 -36q-7 -7 -7 -17q0 -9 6.5 -16t16.5 -7t17 7l36 37l37 -38q7 -7 17 -7t16.5 7t6.5 17
q0 9 -7 16zM535 826q-94 0 -180.5 -37t-148.5 -99t-99 -148.5t-37 -181t37 -180.5t99 -148.5t148.5 -99.5t180.5 -37q23 0 47 3v48q-19 -2 -23 -3v115q-1 9 -8 15.5t-16 6.5t-15.5 -6.5t-7.5 -15.5v-115q-104 6 -192.5 59.5t-142.5 142t-59 193.5h115q9 0 15.5 7t6.5 16
t-6.5 16t-15.5 7h-115q6 104 60 192.5t142.5 142t191.5 59.5v-115q1 -9 7.5 -15.5t15.5 -6.5t16 6.5t8 15.5v115q103 -6 191.5 -59.5t142 -142t60.5 -192.5h-115q-9 0 -15.5 -7t-6.5 -16t6.5 -16t15.5 -8h115q-2 -35 -10 -69h48q10 47 10 93q0 94 -37 180.5t-99.5 148.5
t-148.5 99t-181 37v0z" />
    <glyph glyph-name="warning" unicode="&#xe66d;" 
d="M512 756q-107 0 -198.5 -53t-144.5 -144t-53 -198.5t53 -198.5t144.5 -144t198.5 -53t198.5 53t144.5 144t53 198.5t-53 198.5t-144.5 144t-198.5 53zM512 105h-1q-19 0 -33 13.5t-14 33t14 33t33 13.5h1q19 -1 32 -14.5t13 -32t-13 -32.5t-32 -14zM559 291
q-1 -19 -14.5 -32t-32.5 -13t-32.5 13t-14.5 32v256q1 18 14.5 31.5t32.5 13.5t32.5 -13.5t14.5 -31.5v-256z" />
    <glyph glyph-name="wallet" unicode="&#xe66e;" 
d="M657 -55h-290q-21 0 -32 0.5t-29 2t-27.5 5t-22 10.5t-19 17t-11 25.5t-4.5 34.5q0 46 5.5 89.5t17 88t30.5 85.5t45.5 79t63 71.5t80.5 59.5h96q242 -142 242 -473q0 -19 -4.5 -34.5t-11 -25.5t-19 -17t-22 -10.5t-27.5 -5t-29 -2t-32 -0.5v0zM535 369v49h-48v-49
q-36 -6 -54 -28.5t-18 -51.5q0 -34 15 -53.5t36.5 -25t43 -9t36.5 -11.5t15 -26q0 -4 -3 -9.5t-8.5 -10.5t-15.5 -8t-22 -3q-16 0 -28 3.5t-17.5 8.5t-8.5 11t-3.5 8.5t-0.5 3.5l-39 -20l4 -20q15 -34 67 -41v-50h49v50q37 6 55 28t18 52q0 28 -11 46.5t-27 25.5t-34.5 11.5
t-34.5 6.5t-27 10t-11 22v2q0 6 1 11t4.5 12.5t13.5 11.5t26 4q17 0 30 -4.5t18.5 -10.5t9 -12t3.5 -10v-4l39 20l-5 19q-16 33 -68 41v0zM560 561h-96q-19 42 -38.5 72t-31.5 40.5t-19.5 18t-7.5 12.5q0 47 25 47h23v29q0 3 1 6t3 5t4.5 4t5.5 3t7 1h153q3 0 6 -1t5.5 -3
t4.5 -4t3 -5t1 -6v-29h22q15 0 20.5 -14.5t5.5 -32.5q0 -6 -7.5 -13.5t-19.5 -18t-31.5 -40t-38.5 -71.5v0z" />
    <glyph glyph-name="wallet-o" unicode="&#xe66f;" 
d="M949 840l-40 20q-43 -66 -151.5 -108t-245.5 -42q-133 0 -240.5 40t-152.5 104l-38 -24q39 -54 113 -93t169 -58q-102 -38 -174.5 -142.5t-72.5 -213.5v0q0 -104 50.5 -191.5t137.5 -138.5t190 -51t192.5 50.5t143 139t53.5 191.5q0 119 -73 218l-38 -19q66 -89 66 -196
q0 -92 -47 -170t-126 -123t-169 -45q-91 0 -167.5 45t-121 123t-44.5 170t44.5 169.5t121 122.5t167.5 45q4 0 9 1q144 -4 266 41t178 135v0zM466 488l-130 -130q-13 -13 -13 -32t13 -32l130 -130q13 -13 32 -13t33 13l129 130q13 13 13 32t-13 32l-129 130q-14 13 -33 13
t-32 -13zM616 297l-87 -87q-12 -12 -29 -12t-29 12l-87 87q-12 12 -12 29t12 29l87 87q12 12 29 12t29 -12l87 -87q12 -12 12 -29t-12 -29z" />
    <glyph glyph-name="warning-circle-o" unicode="&#xe605;" 
d="M512 832q-122 0 -225 -60t-163 -163t-60 -225t60 -225t163 -163t225 -60t225 60t163 163t60 225t-60 225t-163 163t-225 60zM512 -19q-109 0 -202 54t-147 147t-54 202t54 202t147 147t202 54t202 -54t147 -147t54 -202t-54 -202t-147 -147t-202 -54zM512 256v0
q13 0 22 -9t9 -22q0 -12 -9 -21v0q-9 -9 -22 -9t-22 8.5t-9 21.5t9 21v1q9 9 22 9v0v0zM536 573l-6 -266h-38l-5 266h49z" />
    <glyph glyph-name="clock-circle-o" unicode="&#xe606;" 
d="M512 787q109 0 202 -54t147 -147t54 -202t-54 -202t-147 -147t-202 -54t-202 54t-147 147t-54 202t54 202t147 147t202 54zM512 832q-122 0 -225 -60t-163 -163t-60 -225t60 -225t163 -163t225 -60t225 60t163 163t60 225t-60 225t-163 163t-225 60zM682 270v0
q-6 0 -11 3l-181 98v303q0 10 6.5 16.5t15.5 6.5t15.5 -6.5t6.5 -16.5v-277l159 -85q11 -7 11 -20q0 -9 -6.5 -15.5t-15.5 -6.5v0z" />
    <glyph glyph-name="service-circle-o" unicode="&#xe607;" 
d="M512 832q-122 0 -225 -60t-163 -163t-60 -225t60 -225t163 -163t225 -60t225 60t163 163t60 225t-60 225t-163 163t-225 60zM512 -19q-109 0 -202 54t-147 147t-54 202t54 202t147 147t202 54t202 -54t147 -147t54 -202t-54 -202t-147 -147t-202 -54zM691 581
q-3 12 -12 19.5t-21 7.5q-14 0 -24 -10t-10 -24v0v-35v0q0 -14 10 -24t24 -10q11 0 20 7t12 18q24 -21 24 -60v-79q0 -30 -22 -50.5t-53 -20.5h-98q-30 0 -52 20.5t-22 50.5v79q0 32 25 56q9 -21 31 -21q14 0 24 10t10 24v0v35v0q0 14 -10 24t-24 10q-13 0 -22.5 -8.5
t-10.5 -21.5q-28 -14 -48 -43.5t-20 -64.5v-79q0 -48 35 -82t84 -34h20v-8q0 -30 -22 -50.5t-53 -20.5h-100q-31 0 -53.5 20.5t-22.5 50.5v86q31 14 31 47q0 22 -15 37t-36.5 15t-36.5 -15t-15 -37q0 -31 27 -45l1 -88q0 -48 35 -82t85 -34h100q50 0 85 34t35 82v8h33
q50 0 84.5 34t34.5 82v79q0 39 -19 69.5t-48 41.5z" />
    <glyph glyph-name="right-square-o" unicode="&#xe671;" 
d="M919 793v-816h-816v816h816zM890 834h-756q-30 0 -51 -21t-21 -51v-756q0 -30 21 -51t51 -21h756q30 0 51 21t21 51v756q0 30 -21 51t-51 21zM685 408l-225 211q-10 9 -24 8.5t-24 -10.5t-9.5 -24.5t10.5 -23.5l198 -186l-198 -186q-10 -9 -10.5 -23.5t9.5 -24.5
t24 -10.5t24 8.5l225 211q11 10 11 25t-11 25z" />
    <glyph glyph-name="left-square-o" unicode="&#xe673;" 
d="M919 793v-816h-816v816h816zM890 834h-756q-30 0 -51 -21t-21 -51v-756q0 -30 21 -51t51 -21h756q30 0 51 21t21 51v756q0 30 -21 51t-51 21zM339 360l225 -211q10 -9 24 -8.5t24 10.5t9.5 24.5t-10.5 23.5l-198 186l198 186q10 9 10.5 23.5t-9.5 24.5t-24 10.5t-24 -8.5
l-225 -211q-11 -10 -11 -25t11 -25z" />
    <glyph glyph-name="user1" unicode="&#xe670;" 
d="M641 323q126 -41 206 -149.5t80 -244.5q0 -10 -8 -17.5t-18 -7.5t-17.5 7.5t-8.5 17.5q0 99 -48.5 182.5t-132 132t-182.5 48.5t-182.5 -48.5t-132 -132t-48.5 -182.5q-1 -10 -8.5 -17.5t-18 -7.5t-18 7.5t-7.5 17.5q0 136 80 244.5t206 149.5q-72 37 -114.5 105.5
t-42.5 149.5q0 118 84 201.5t202 83.5t201.5 -83.5t83.5 -201.5q0 -81 -42 -149.5t-114 -105.5zM512 811q-97 0 -165.5 -68.5t-68.5 -165t68.5 -165t165.5 -68.5t165 68.5t68 165t-68 165t-165 68.5z" />
  </font>
</defs>
</svg>
